<svg width="235" height="64" viewBox="0 0 235 64" fill="none" xmlns="http://www.w3.org/2000/svg">
<ellipse cx="31.8965" cy="31.9863" rx="4.00003" ry="4" fill="#9C9E9F"/>
<ellipse cx="4.00003" cy="31.9863" rx="4.00003" ry="4" fill="#CE302C"/>
<ellipse cx="17.9483" cy="31.9863" rx="4.00003" ry="4" fill="#9C9E9F"/>
<ellipse cx="31.8965" cy="4.08984" rx="4.00003" ry="4" fill="#CE302C"/>
<ellipse cx="4.00003" cy="4.08984" rx="4.00003" ry="4" fill="#CE302C"/>
<ellipse cx="17.9483" cy="4.08984" rx="4.00003" ry="4" fill="#CE302C"/>
<ellipse cx="31.8965" cy="18.0381" rx="4.00003" ry="4" fill="#9C9E9F"/>
<ellipse cx="4.00003" cy="18.0381" rx="4.00003" ry="4" fill="#CE302C"/>
<ellipse cx="17.9483" cy="18.0381" rx="4.00003" ry="4" fill="#CE302C"/>
<path fill-rule="evenodd" clip-rule="evenodd" d="M91.821 6.61816C95.0749 6.61816 97.9696 7.68898 100.222 9.51972V7.21229H107.614V35.9031H100.222V33.5957C97.8521 35.613 95.1371 36.4973 92.2355 36.4973C87.9799 36.4973 83.9522 34.6043 81.4099 31.6475C79.1646 29.043 77.7415 25.4921 77.7415 21.5888C77.7415 13.1259 84.0144 6.61816 91.821 6.61816ZM93.0024 29.4023C95.9039 29.4023 98.4463 27.9791 99.9247 25.8513V17.2779C98.3288 15.1501 95.7796 13.727 92.8227 13.727C88.3322 13.727 85.4306 17.4506 85.4306 21.5957C85.4306 26.0862 88.6845 29.4023 93.0024 29.4023Z" fill="#CE302C"/>
<path d="M49.7136 35.9102H57.6999V22.6045H72.1387V15.5026H57.6999V7.09499H76.2838V0H49.7136V35.9102Z" fill="#CE302C"/>
<path fill-rule="evenodd" clip-rule="evenodd" d="M126.792 6.61816C130.046 6.61816 132.941 7.68898 135.193 9.51972V7.21229H142.585V34.3073C142.585 39.4472 141.694 42.5284 139.98 44.9532C137.376 48.5663 132.761 50.6942 127.262 50.6942C126.357 50.6942 125.466 50.6182 124.588 50.4938V43.5992C125.403 43.7788 126.288 43.8893 127.262 43.8893C129.749 43.8893 131.821 43.1225 133.12 41.5819C134.302 40.2831 134.896 38.5076 134.896 34.8392V33.8928C132.588 35.6682 130.108 36.4973 127.206 36.4973C122.944 36.4973 118.861 34.6043 116.319 31.6475C114.073 29.043 112.712 25.4921 112.712 21.5888C112.712 13.1259 118.985 6.61816 126.792 6.61816ZM127.98 29.4023C130.882 29.4023 133.424 27.9791 134.903 25.8513V17.2779C133.307 15.1501 130.757 13.727 127.801 13.727C123.31 13.727 120.408 17.4506 120.408 21.5957C120.408 26.0862 123.662 29.4023 127.98 29.4023Z" fill="#CE302C"/>
<path d="M232.043 11.2399C229.674 8.40048 226.067 6.625 222.102 6.625C218.91 6.625 216.188 7.75108 213.998 9.52655V7.21913H206.599V35.9169H214.288V17.2709C215.352 15.7925 218.019 13.72 221.273 13.72C223.048 13.72 224.589 14.3141 225.591 15.3158C226.655 16.3797 227.304 17.8582 227.304 20.6975V35.9031H234.993V21.2986C235 16.3867 233.936 13.4851 232.043 11.2399Z" fill="#CE302C"/>
<path fill-rule="evenodd" clip-rule="evenodd" d="M170.551 21.5956C170.551 13.3124 177.121 6.625 185.818 6.625C194.516 6.625 201.086 13.3124 201.086 21.5956C201.086 29.8789 194.516 36.5041 185.818 36.5041C177.121 36.5041 170.551 29.8789 170.551 21.5956ZM178.247 21.5956C178.247 25.9134 181.321 29.4022 185.818 29.4022C190.316 29.4022 193.39 25.9134 193.39 21.5956C193.39 17.2778 190.316 13.7269 185.818 13.7269C181.321 13.7269 178.247 17.2778 178.247 21.5956Z" fill="#CE302C"/>
<path d="M156.644 10.1138V7.21222H149.245V35.91H156.934V17.8651C157.88 16.1518 160.547 13.72 163.918 13.72C165.044 13.72 167.048 13.8374 167.587 14.0171V6.85989C166.758 6.74244 166.108 6.625 164.982 6.625C161.493 6.625 158.357 7.98597 156.644 10.1138Z" fill="#CE302C"/>
<path fill-rule="evenodd" clip-rule="evenodd" d="M202.274 41.416H203.628V50.5697H202.274V41.416ZM162.93 49.5542L162.972 49.4989L162.081 48.6492L162.025 48.7044C161.673 49.0913 161.203 49.492 160.367 49.492C159.414 49.492 158.619 48.7735 158.523 47.8409H163.096L163.103 47.7718C163.117 47.6544 163.117 47.5576 163.117 47.5093C163.117 45.6924 161.853 44.3245 160.174 44.3245C158.447 44.3245 157.196 45.6647 157.196 47.5093C157.196 49.3262 158.55 50.6941 160.353 50.6941C161.873 50.701 162.661 49.8996 162.93 49.5542ZM168.381 44.3314C167.587 44.3314 166.999 44.6561 166.668 45.0084V44.4557H165.348V50.5697H166.702V46.5697C167.034 46.0101 167.663 45.6233 168.236 45.6233C168.43 45.6233 168.561 45.6371 168.685 45.6716L168.768 45.6924L168.927 44.3797L168.858 44.3659C168.72 44.3452 168.512 44.3314 168.381 44.3314ZM174.012 58.1898C173.514 57.8167 172.913 57.6233 172.264 57.6233C171.718 57.6233 171.2 57.7614 170.765 58.0171C169.784 58.5974 169.189 59.6405 169.189 60.8081C169.189 61.9687 169.77 63.0119 170.751 63.5853C171.179 63.8409 171.753 63.986 172.284 63.986C172.948 63.986 173.563 63.7787 174.046 63.3987V63.8547H175.366V54.7079H174.012V58.1898ZM172.45 62.701C173.051 62.701 173.632 62.4039 174.012 61.8996V59.7165C173.618 59.2122 173.017 58.9152 172.388 58.9152C171.338 58.9152 170.55 59.7304 170.55 60.8081C170.55 61.872 171.386 62.701 172.45 62.701ZM178.689 54.8323C178.205 54.8323 177.825 55.2191 177.825 55.7096C177.825 56.1932 178.205 56.5732 178.689 56.5732C179.179 56.5732 179.566 56.1932 179.566 55.7096C179.559 55.226 179.172 54.8323 178.689 54.8323ZM179.373 63.8616H178.019V57.7476H179.373V63.8616ZM164.45 57.6233C162.723 57.6233 161.473 58.9635 161.473 60.8081C161.473 62.625 162.827 63.9929 164.63 63.9929C166.143 63.9929 166.93 63.1915 167.2 62.8461L167.241 62.7908L166.35 61.9411L166.295 61.9963C165.942 62.3832 165.473 62.7839 164.637 62.7839C163.683 62.7839 162.889 62.0654 162.792 61.1328H167.366L167.373 61.0637C167.386 60.9462 167.386 60.8495 167.386 60.8012C167.393 58.9911 166.129 57.6233 164.45 57.6233ZM164.492 58.8323C163.773 58.8323 163.138 59.2951 162.917 59.9721H165.963C165.77 59.3158 165.155 58.8323 164.492 58.8323ZM161.687 46.6803C161.493 46.024 160.879 45.5404 160.215 45.5404C159.497 45.5404 158.868 46.0032 158.64 46.6803H161.687ZM172.865 49.4989C172.284 49.4989 171.69 49.2778 171.152 48.8564L171.089 48.8081L170.385 49.8167L170.44 49.8582C171.131 50.4177 171.96 50.701 172.899 50.701C174.012 50.701 175.193 50.0378 175.193 48.8012C175.193 47.5784 174.067 47.1224 172.968 46.8392C172.36 46.6803 171.96 46.5559 171.96 46.2174C171.96 45.7545 172.478 45.5473 172.962 45.5473C173.383 45.5473 173.797 45.6993 174.198 46.0032L174.26 46.0516L174.972 45.0706L174.917 45.0291C174.364 44.5801 173.68 44.3521 172.892 44.3521C171.794 44.3521 170.613 44.9601 170.613 46.2934C170.613 47.0326 171.103 47.5922 172.036 47.9031C172.225 47.964 172.414 48.0143 172.598 48.0632L172.671 48.0827C173.328 48.2485 173.846 48.3867 173.846 48.8426C173.825 49.2433 173.335 49.4989 172.865 49.4989ZM156.588 57.6233C155.476 57.6233 154.82 58.093 154.322 58.5766C153.783 57.9618 153.037 57.6233 152.215 57.6233C151.49 57.6233 150.861 57.9549 150.543 58.2243V57.7545H149.224V63.8685H150.578V59.7234C150.799 59.4678 151.366 58.9221 152.174 58.9221C152.602 58.9221 153.01 59.1086 153.272 59.4126C153.5 59.682 153.597 60.0205 153.597 60.5525V63.8616H154.951V60.7459C154.951 60.3659 154.923 60.0274 154.854 59.7165C155.227 59.3366 155.759 58.9152 156.588 58.9152C156.996 58.9152 157.383 59.0948 157.645 59.4057C157.873 59.6751 157.97 60.0136 157.97 60.5455V63.8547H159.324V60.7459C159.324 59.7718 159.158 59.1431 158.765 58.6595C158.246 57.9963 157.452 57.6233 156.588 57.6233ZM152.305 50.701C151.642 50.701 151.062 50.5076 150.578 50.1345V53.6164H149.224V44.4626H150.543V44.9255C151.048 44.5386 151.649 44.3383 152.333 44.3383C152.885 44.3383 153.404 44.4765 153.832 44.7321C154.813 45.3124 155.4 46.3556 155.4 47.5231C155.4 48.6837 154.813 49.72 153.839 50.3003C153.417 50.549 152.837 50.701 152.305 50.701ZM150.578 46.4247C150.972 45.9203 151.573 45.6233 152.201 45.6233C153.252 45.6233 154.039 46.4385 154.039 47.5162C154.039 48.5732 153.203 49.4091 152.139 49.4091C151.545 49.4091 150.958 49.112 150.578 48.6077V46.4247ZM207.622 50.5697H206.267V44.4557H207.622V50.5697ZM214.717 45.3469L214.73 45.3262V44.4626H209.825V45.6924H212.824L209.646 49.6924L209.632 49.7131V50.5766H214.986V49.3469H211.532L214.717 45.3469ZM206.081 42.4177C206.081 41.9272 206.461 41.5404 206.945 41.5404C207.428 41.5404 207.815 41.9342 207.822 42.4177C207.822 42.9013 207.435 43.2813 206.945 43.2813C206.461 43.2813 206.081 42.9013 206.081 42.4177ZM216.879 50.5697H218.233V44.4557H216.879V50.5697ZM180.119 44.3314C181.922 44.3314 183.276 45.6993 183.276 47.5162C183.276 49.3331 181.922 50.701 180.119 50.701C178.316 50.701 176.962 49.3331 176.962 47.5162C176.962 45.6993 178.316 44.3314 180.119 44.3314ZM180.119 49.4091C179.089 49.4091 178.316 48.5939 178.316 47.5162C178.316 46.4385 179.089 45.6233 180.119 45.6233C181.148 45.6233 181.922 46.4385 181.922 47.5162C181.922 48.5939 181.141 49.4091 180.119 49.4091ZM216.686 42.4177C216.686 41.9272 217.065 41.5404 217.549 41.5404C218.033 41.5404 218.426 41.9342 218.426 42.4177C218.426 42.9013 218.04 43.2813 217.549 43.2813C217.065 43.2813 216.686 42.9013 216.686 42.4177ZM233.68 44.4626V44.9255C233.176 44.5317 232.575 44.3383 231.891 44.3383C231.345 44.3383 230.827 44.4765 230.392 44.7321C229.425 45.3055 228.817 46.3763 228.817 47.5231C228.817 48.6837 229.397 49.7269 230.378 50.3003C230.807 50.5559 231.38 50.701 231.912 50.701C232.575 50.701 233.155 50.5145 233.639 50.1414V50.3141C233.639 51.0119 233.542 51.4747 233.321 51.8063C233.038 52.2347 232.561 52.4557 231.94 52.4557C230.952 52.4557 230.42 51.9307 230.033 51.4195L229.984 51.3504L228.99 52.2761L229.024 52.3314C229.439 52.9877 230.468 53.7476 231.995 53.7476C233.176 53.7476 234.136 53.1949 234.634 52.2347C234.883 51.7442 235 51.1293 235 50.245V44.4626H233.68ZM232.085 49.4091C232.686 49.4091 233.266 49.112 233.646 48.6077V46.4247C233.252 45.9203 232.651 45.6233 232.022 45.6233C230.979 45.6233 230.185 46.4385 230.185 47.5162C230.185 48.5801 231.021 49.4091 232.085 49.4091ZM204.402 57.6233C202.675 57.6233 201.425 58.9635 201.425 60.8081C201.425 62.625 202.779 63.9929 204.582 63.9929C206.102 63.9929 206.882 63.1915 207.152 62.8461L207.193 62.7908L206.302 61.9411L206.247 61.9963C205.881 62.4039 205.425 62.7839 204.589 62.7839C203.642 62.7839 202.841 62.0654 202.744 61.1328H207.324L207.331 61.0637C207.345 60.9462 207.345 60.8495 207.345 60.8012C207.345 58.9911 206.081 57.6233 204.402 57.6233ZM204.444 58.8323C203.725 58.8323 203.09 59.2951 202.868 59.9721H205.915C205.722 59.3158 205.107 58.8323 204.444 58.8323ZM223.898 44.3314C223.062 44.3314 222.482 44.6975 222.185 44.9393V44.4626H220.865V50.5766H222.219V46.4316C222.482 46.1207 223.028 45.6302 223.857 45.6302C224.319 45.6302 224.755 45.8374 225.031 46.1829C225.204 46.397 225.37 46.7148 225.37 47.5162V50.5697H226.724V47.5784C226.724 46.5905 226.544 45.948 226.123 45.416C225.591 44.7252 224.775 44.3314 223.898 44.3314ZM190.834 63.8616H189.48V57.7476H190.834V63.8616ZM186.488 61.8029C186.039 62.397 185.48 62.701 184.823 62.701C183.704 62.701 182.924 61.9203 182.924 60.8081C182.924 59.7304 183.711 58.9152 184.747 58.9152C185.583 58.9152 186.102 59.4609 186.336 59.7856L186.385 59.8547L187.387 59.0119L187.345 58.9566C186.744 58.1276 185.777 57.6302 184.747 57.6302C182.931 57.6302 181.563 58.9981 181.563 60.815C181.563 62.6319 182.965 63.9998 184.823 63.9998C185.936 63.9998 187.027 63.4264 187.538 62.5697L187.573 62.5076L186.53 61.7476L186.488 61.8029ZM198.309 44.9201C197.806 44.53 197.207 44.3383 196.526 44.3383C195.981 44.3383 195.463 44.4765 195.027 44.7321C194.046 45.3124 193.452 46.3556 193.452 47.5231C193.452 48.6837 194.032 49.7269 195.014 50.3003C195.442 50.5559 196.015 50.701 196.547 50.701C197.21 50.701 197.825 50.4937 198.309 50.1138V50.5697H199.628V44.4557H198.309V44.9201ZM198.281 48.6077C197.901 49.112 197.314 49.4091 196.72 49.4091C195.656 49.4091 194.813 48.5801 194.813 47.5162C194.813 46.4385 195.601 45.6233 196.651 45.6233C197.279 45.6233 197.881 45.9203 198.274 46.4247V48.6077H198.281ZM189.286 55.7096C189.286 55.2191 189.666 54.8323 190.15 54.8323C190.634 54.8323 191.027 55.226 191.027 55.7096C191.027 56.1932 190.64 56.5732 190.15 56.5732C189.666 56.5732 189.286 56.1932 189.286 55.7096ZM188.533 44.3314C187.697 44.3314 187.117 44.6975 186.82 44.9393V44.4626H185.5V50.5766H186.855V46.4316C187.165 46.0585 187.697 45.6302 188.492 45.6302C188.955 45.6302 189.39 45.8374 189.666 46.1829C189.839 46.397 190.005 46.7148 190.005 47.5162V50.5697H191.359V47.5784C191.359 46.5905 191.179 45.948 190.758 45.416C190.226 44.7252 189.411 44.3314 188.533 44.3314ZM194.786 58.2312C195.083 57.9894 195.663 57.6233 196.499 57.6233C197.376 57.6233 198.185 58.0171 198.723 58.7079C199.145 59.2399 199.324 59.8823 199.324 60.8702V63.8616H197.97V60.8081C197.97 60.0067 197.805 59.6889 197.632 59.4747C197.355 59.1293 196.92 58.9221 196.457 58.9221C195.628 58.9221 195.083 59.4126 194.82 59.7234V63.8685H193.466V57.7545H194.786V58.2312Z" fill="#9C9E9F"/>
</svg>
