<svg xmlns="http://www.w3.org/2000/svg" width="202" height="45" fill="none" viewBox="0 0 202 45">
    <path fill="#008FCF" fill-rule="evenodd" d="M74.385 34.431c0 .13-.041.245-.126.35-.085.102-.225.185-.42.25-.194.065-.455.117-.779.155-.325.039-.734.058-1.228.058-.506 0-.926-.02-1.257-.058-.331-.038-.592-.09-.78-.155-.189-.065-.325-.148-.41-.25-.084-.105-.126-.22-.126-.35V24.312h-9.434v10.12c0 .128-.04.244-.117.348-.078.103-.215.186-.41.25-.195.066-.454.118-.779.156-.325.039-.741.058-1.247.058-.495 0-.907-.02-1.239-.058-.331-.038-.593-.09-.79-.155-.194-.065-.333-.148-.418-.25-.085-.105-.127-.22-.127-.35V10.788c0-.13.042-.245.127-.349.085-.103.224-.186.419-.252.196-.064.458-.115.79-.154.33-.039.743-.058 1.238-.058.506 0 .922.02 1.247.058.325.039.584.09.78.154.194.066.331.149.409.252.078.104.117.22.117.349v9.19h9.434v-9.19c0-.13.042-.245.126-.349.085-.103.221-.186.41-.252.188-.064.449-.115.78-.154.331-.039.75-.058 1.257-.058.494 0 .903.02 1.228.058.324.039.585.09.78.154.194.066.334.149.419.252.085.104.126.22.126.349V34.43zm20.048-1.296c0 .375-.017.687-.049.938-.032.252-.08.455-.145.61-.066.155-.147.268-.244.338-.098.072-.205.107-.322.107h-12.67c-.429 0-.79-.126-1.082-.377-.292-.252-.438-.661-.438-1.229V11.697c0-.568.146-.977.438-1.229.293-.252.653-.377 1.082-.377h12.592c.117 0 .22.032.312.097.09.064.169.177.234.339.065.161.114.367.147.619.032.251.047.57.047.958 0 .36-.015.666-.047.918-.033.252-.082.455-.147.61-.065.155-.144.268-.234.338-.091.071-.195.107-.312.107H84.59v6.114h7.62c.119 0 .225.036.323.106.097.07.178.182.244.33.064.147.113.348.145.6.033.25.05.557.05.918 0 .374-.017.684-.05.93-.032.244-.08.44-.145.588-.066.15-.147.255-.244.32-.098.065-.204.097-.322.097h-7.62v7.062h9.082c.117 0 .224.035.322.107.097.07.178.183.244.339.065.154.112.357.145.609.032.252.05.564.05.938zm33.437 1.296c0 .13-.036.245-.106.35-.072.102-.203.185-.391.25s-.438.117-.75.155c-.311.039-.709.058-1.189.058-.468 0-.858-.02-1.169-.058-.313-.038-.559-.09-.741-.155-.182-.065-.312-.148-.39-.25-.078-.105-.117-.22-.117-.35V14.058h-.039l-7.31 20.354c-.052.167-.136.307-.253.416-.117.11-.276.197-.478.261-.201.065-.458.106-.769.126-.312.02-.69.029-1.131.029-.442 0-.819-.016-1.13-.049-.313-.032-.569-.083-.771-.154-.201-.07-.36-.158-.477-.26-.117-.105-.195-.227-.233-.37l-7.057-20.353h-.039V34.43c0 .13-.036.245-.107.35-.072.102-.205.185-.4.25-.195.065-.445.117-.751.155-.305.039-.698.058-1.178.058-.468 0-.859-.02-1.17-.058-.312-.038-.563-.09-.75-.155-.189-.065-.319-.148-.39-.25-.072-.105-.107-.22-.107-.35V12.122c0-.658.175-1.16.525-1.509.352-.348.82-.522 1.404-.522h3.353c.597 0 1.111.049 1.54.145.429.097.799.258 1.111.483.312.226.571.523.779.891.208.367.39.822.546 1.364l5.458 14.917h.078l5.652-14.878c.169-.542.355-1 .556-1.374.201-.375.435-.677.702-.91.266-.231.581-.396.945-.493.363-.096.786-.145 1.267-.145h3.45c.351 0 .653.046.907.135.253.09.461.223.623.397.163.175.286.387.371.638.084.252.126.54.126.861v22.31zm19.969-1.296c0 .375-.017.687-.049.938-.033.252-.081.455-.146.61-.066.155-.147.268-.244.338-.097.072-.205.107-.322.107h-12.669c-.43 0-.79-.126-1.082-.377-.293-.252-.438-.661-.438-1.229V11.697c0-.568.145-.977.438-1.229.292-.252.652-.377 1.082-.377H147c.117 0 .221.032.313.097.089.064.168.177.233.339.065.161.114.367.147.619.032.251.048.57.048.958 0 .36-.016.666-.048.918-.033.252-.082.455-.147.61-.065.155-.144.268-.233.338-.092.071-.196.107-.313.107h-9.005v6.114h7.621c.118 0 .225.036.322.106s.178.182.244.33c.065.147.114.348.146.6.032.25.048.557.048.918 0 .374-.016.684-.048.93-.032.244-.081.44-.146.588-.066.15-.147.255-.244.32s-.204.097-.322.097h-7.621v7.062h9.083c.117 0 .225.035.322.107.097.07.178.183.244.339.065.154.113.357.146.609.032.252.049.564.049.938zm25.076-10.893c0 2.296-.301 4.26-.906 5.891-.604 1.633-1.471 2.964-2.602 3.996-1.131 1.032-2.505 1.79-4.123 2.274-1.617.483-3.544.725-5.779.725h-6.023c-.429 0-.789-.126-1.082-.377-.292-.252-.439-.661-.439-1.229V11.697c0-.568.147-.977.439-1.23.293-.25.653-.376 1.082-.376h6.471c2.249 0 4.155.26 5.722.784 1.564.522 2.884 1.296 3.956 2.321 1.073 1.026 1.888 2.293 2.447 3.802.558 1.51.837 3.257.837 5.244zm-5.301.174c0-1.187-.14-2.29-.419-3.309-.28-1.018-.728-1.903-1.346-2.65-.616-.749-1.41-1.332-2.377-1.751-.969-.42-2.239-.63-3.811-.63h-2.592v17.028h2.67c1.404 0 2.585-.181 3.547-.542.961-.361 1.765-.906 2.408-1.636.643-.728 1.123-1.634 1.442-2.718.318-1.084.478-2.348.478-3.792zm14.258 12.015c0 .13-.042.245-.127.35-.084.102-.224.185-.419.25-.194.065-.455.117-.779.155-.326.039-.741.058-1.248.058-.494 0-.906-.02-1.237-.058-.332-.038-.595-.09-.79-.155-.195-.065-.335-.148-.419-.25-.085-.105-.127-.22-.127-.35V10.788c0-.13.042-.245.127-.349.084-.103.227-.186.428-.252.202-.064.465-.115.79-.154.325-.039.734-.058 1.228-.058.507 0 .922.02 1.248.058.324.039.585.09.779.154.195.066.335.149.419.252.085.104.127.22.127.349V34.43zM202 27.621c0 1.315-.247 2.47-.741 3.463-.494.994-1.163 1.822-2.007 2.487-.846.664-1.833 1.164-2.964 1.5-1.129.334-2.338.502-3.624.502-.871 0-1.681-.07-2.427-.213-.748-.142-1.407-.312-1.979-.513-.572-.2-1.049-.409-1.432-.629-.384-.22-.66-.413-.829-.58-.169-.167-.289-.41-.36-.725-.072-.317-.108-.772-.108-1.364 0-.4.013-.735.039-1.007.026-.27.069-.49.127-.658.059-.167.137-.287.233-.357.098-.07.212-.107.342-.107.181 0 .439.107.77.32.331.213.757.448 1.277.706.52.258 1.14.493 1.861.705.721.213 1.556.32 2.505.32.624 0 1.182-.074 1.676-.223.493-.147.913-.357 1.258-.629.343-.27.607-.606.789-1.005.182-.4.273-.845.273-1.335 0-.568-.156-1.055-.468-1.462-.312-.406-.719-.766-1.218-1.082-.501-.317-1.07-.613-1.705-.891-.638-.277-1.294-.57-1.969-.88-.676-.31-1.333-.66-1.97-1.055-.636-.393-1.205-.864-1.705-1.412-.5-.548-.906-1.197-1.218-1.945-.312-.747-.468-1.645-.468-2.689 0-1.2.224-2.254.673-3.164.448-.91 1.052-1.663 1.812-2.263.761-.6 1.657-1.049 2.69-1.345 1.033-.297 2.128-.445 3.284-.445.598 0 1.196.045 1.794.135.597.09 1.156.213 1.676.368.519.155.981.329 1.384.523.403.193.669.354.799.483s.217.239.263.33c.045.09.085.21.117.357.032.148.055.336.069.561.012.225.019.506.019.841 0 .375-.01.691-.029.949-.02.258-.052.471-.098.639-.046.167-.111.29-.194.367-.085.077-.199.116-.342.116-.142 0-.37-.09-.682-.27-.312-.182-.695-.378-1.15-.59-.455-.214-.981-.407-1.579-.581-.598-.175-1.254-.262-1.969-.262-.559 0-1.046.068-1.461.203-.416.136-.764.323-1.043.562-.28.239-.488.525-.624.86-.136.336-.204.69-.204 1.065 0 .554.152 1.035.458 1.441.304.406.713.768 1.227 1.084.513.316 1.095.612 1.745.89.65.278 1.312.571 1.988.88.676.31 1.338.66 1.988 1.055.65.393 1.228.864 1.735 1.412.507.549.917 1.192 1.228 1.936.312.741.468 1.614.468 2.62zM34.056 35.145c0 .125-.041.237-.122.337-.082.1-.216.18-.405.243-.188.061-.44.112-.753.148-.313.038-.708.057-1.185.057-.49 0-.974-.019-1.295-.056-.32-.037-.571-.088-.752-.15-.183-.063-.313-.143-.395-.242-.082-.1-.123-.212-.123-.337V24.318h-12.79v10.827c0 .125-.038.237-.113.337-.076.1-.207.18-.395.243-.188.061-.44.112-.754.148-.314.038-.714.057-1.204.057-.476 0-.876-.019-1.195-.056-.32-.037-.575-.088-.762-.15-.188-.063-.323-.143-.405-.242-.081-.1-.121-.212-.121-.337V9.99c0-.125.04-.237.121-.336.082-.1.217-.18.405-.244.187-.061.442-.11.762-.148.32-.038.719-.057 1.195-.057.49 0 .89.02 1.204.057.315.037.566.087.754.148.188.064.32.144.395.244.075.1.114.211.114.336v10.037h12.778V9.99c0-.125.04-.237.123-.336.082-.1.212-.18.394-.244.182-.061.433-.11.753-.148.32-.038.725-.057 1.214-.057.477 0 .964.02 1.277.057.314.037.565.087.753.148.188.064.323.144.405.244.08.1.122.211.122.336v25.155zm-9.09 7.979c9.728-1.062 17.467-8.768 18.493-18.434h-4.63c-.117 0-.223-.038-.318-.115-.094-.076-.171-.204-.23-.386-.059-.182-.106-.42-.142-.712-.035-.293-.053-.663-.053-1.107 0-.457.018-.831.053-1.125.036-.293.083-.528.142-.703.059-.176.136-.302.23-.378.095-.076.201-.113.319-.113h4.589C42.282 10.507 34.607 2.93 24.97 1.875v8.67c0 .116-.038.222-.115.316-.077.093-.204.17-.381.23-.177.058-.413.104-.709.14-.295.035-.671.051-1.133.051-.448 0-.823-.016-1.123-.051-.302-.036-.541-.082-.718-.14-.177-.06-.303-.136-.38-.23-.077-.094-.115-.2-.115-.316V1.886C10.691 2.968 3.05 10.53 1.915 20.051h4.697c.118 0 .224.037.319.113.094.076.17.202.23.378.058.175.106.41.141.703.035.294.054.668.054 1.125 0 .444-.019.817-.054 1.116-.035.3-.083.536-.141.712-.06.175-.136.3-.23.377-.095.077-.2.115-.32.115H1.876c1.024 9.642 8.726 17.33 18.418 18.422v-8.517c0-.118.037-.223.115-.317.077-.093.205-.17.39-.228.182-.059.421-.106.717-.141.294-.035.666-.052 1.114-.052.461 0 .839.017 1.133.052.296.035.532.082.709.141.177.059.304.135.381.228.077.094.115.2.115.317v8.529zM45.198 20.05c.089.804.138 1.621.138 2.45 0 .738-.04 1.468-.11 2.189-1.039 10.63-9.56 19.12-20.258 20.194-.757.076-1.523.116-2.3.116-.802 0-1.593-.043-2.374-.124C9.631 43.77 1.146 35.296.11 24.69.038 23.969 0 23.24 0 22.5c0-.828.049-1.645.137-2.45C1.285 9.566 9.72 1.22 20.297.125c.78-.081 1.57-.124 2.37-.124.778 0 1.546.04 2.304.115C35.578 1.183 44.045 9.543 45.197 20.05z" clip-rule="evenodd"/>
</svg>
